<svg width="271" height="24" viewBox="0 0 271 24" fill="none" xmlns="http://www.w3.org/2000/svg">
<path d="M22.365 0.546196V3.9538H5.71298V10.1984H20.3281V13.4511H5.71298V23.4538H0V0.546196H22.365Z" fill="black"/>
<path d="M39.6581 0C44.2269 0 47.9355 1.1087 50.8001 3.32609C53.6566 5.54348 55.0848 8.4375 55.0848 12C55.0848 15.5625 53.6484 18.4484 50.7757 20.6739C47.903 22.8913 44.162 24 39.5689 24C34.9433 24 31.1942 22.8913 28.3377 20.6821C25.4812 18.4728 24.0529 15.5788 24.0529 11.9918C24.0529 8.51902 25.4487 5.64946 28.2484 3.38315C31.04 1.13315 34.8459 0 39.6581 0ZM39.5608 3.375C36.5988 3.375 34.2211 4.14946 32.4358 5.70652C30.6504 7.26359 29.7578 9.33424 29.7578 11.9348C29.7578 14.5924 30.6423 16.7038 32.4114 18.269C34.1805 19.8342 36.5907 20.6168 39.65 20.6168C42.5795 20.6168 44.9329 19.8261 46.702 18.2527C48.4711 16.6793 49.3556 14.5761 49.3556 11.9592C49.3556 9.34239 48.4711 7.25543 46.702 5.69837C44.941 4.15761 42.5552 3.375 39.5608 3.375Z" fill="black"/>
<path d="M85.0049 0.546196V14.5761C85.0049 20.7962 80.6147 23.9103 71.8423 23.9103C67.2736 23.9103 63.9058 23.1359 61.7472 21.5951C59.5805 20.0462 58.5012 17.6902 58.5012 14.519V0.546196H64.1736V15.3179C64.1736 18.8397 66.7623 20.5924 71.9316 20.5924C73.5059 20.5924 74.7962 20.4457 75.8106 20.144C76.825 19.8424 77.5715 19.3859 78.0584 18.7582C78.5453 18.1386 78.8781 17.462 79.0566 16.7446C79.2351 16.0272 79.3325 15.1304 79.3325 14.0543V0.546196H85.0049Z" fill="black"/>
<path d="M114.982 0.546196V23.4538H109.131L94.0613 6.59511V23.4538H88.7053V0.546196H94.6537L109.537 17.4375V0.546196H114.982Z" fill="black"/>
<path d="M118.82 0.546196H131.114C133.354 0.546196 135.318 0.717391 137.014 1.04348C138.71 1.37772 140.268 1.99728 141.688 2.89402C144.861 4.90761 146.452 7.81793 146.452 11.6168C146.452 15.6685 144.942 18.7745 141.916 20.9185C140.585 21.8641 139.14 22.5245 137.582 22.8995C136.024 23.2745 133.971 23.462 131.431 23.462H118.82V0.546196ZM124.444 3.9538V20.0707H131.114C134.653 20.0707 137.152 19.3451 138.605 17.8859C140.057 16.4266 140.779 14.3967 140.779 11.8043C140.779 9.33424 139.96 7.41033 138.329 6.03261C136.698 4.65489 134.166 3.9538 130.749 3.9538H124.444Z" fill="black"/>
<path d="M163.583 0.513587L176.064 23.4538H169.985L166.902 17.3723H154.104L150.931 23.4538H145.08L157.561 0.513587H163.583ZM165.392 14.3478L160.58 4.69565L155.541 14.3478H165.392Z" fill="black"/>
<path d="M196.668 0.546196V4.01902H186.362V23.4538H180.689V4.01902H170.391V0.546196H196.668Z" fill="black"/>
<path d="M205.627 0.546196H199.906V23.4538H205.627V0.546196Z" fill="black"/>
<path d="M225.086 0C229.655 0 233.364 1.1087 236.228 3.32609C239.085 5.54348 240.513 8.4375 240.513 12C240.513 15.5625 239.077 18.4484 236.204 20.6739C233.331 22.8913 229.59 24 224.997 24C220.372 24 216.622 22.8913 213.766 20.6821C210.91 18.4728 209.481 15.5788 209.481 11.9918C209.481 8.51902 210.877 5.64946 213.677 3.38315C216.468 1.13315 220.274 0 225.086 0ZM224.997 3.375C222.035 3.375 219.658 4.14946 217.872 5.70652C216.087 7.26359 215.194 9.33424 215.194 11.9348C215.194 14.5924 216.079 16.7038 217.848 18.269C219.617 19.8342 222.027 20.6168 225.086 20.6168C228.016 20.6168 230.369 19.8261 232.138 18.2527C233.908 16.6793 234.792 14.5761 234.792 11.9592C234.792 9.34239 233.908 7.25543 232.138 5.69837C230.369 4.15761 227.992 3.375 224.997 3.375Z" fill="black"/>
<path d="M270.133 0.546196V23.4538H264.282L249.221 6.59511V23.4538H243.865V0.546196H249.805L264.688 17.4375V0.546196H270.133Z" fill="black"/>
</svg>
